<?xml version="1.0" encoding="utf-8"?>
<!-- Generator: Adobe Illustrator 22.1.0, SVG Export Plug-In . SVG Version: 6.00 Build 0)  -->
<svg version="1.1" id="Layer_1" xmlns="http://www.w3.org/2000/svg" xmlns:xlink="http://www.w3.org/1999/xlink" x="0px" y="0px"
	 viewBox="0 0 3333 1875" style="enable-background:new 0 0 3333 1875;" xml:space="preserve">
<style type="text/css">
	.st0{fill:#2A2627;}
	.st1{fill:#3C3839;}
	.st2{fill:#343233;}
	.st3{fill:#423D3E;stroke:#000000;stroke-miterlimit:10;}
	.st4{fill:#78716A;stroke:#000000;stroke-miterlimit:10;}
	.st5{fill:none;stroke:#000000;stroke-miterlimit:10;}
	.st6{fill:none;stroke:#000000;stroke-width:4;stroke-linecap:round;stroke-linejoin:round;stroke-miterlimit:10;}
	.st7{fill:none;stroke:#000000;stroke-width:5;stroke-linecap:round;stroke-linejoin:round;stroke-miterlimit:10;}
	.st8{fill:#725C50;}
	.st9{fill:none;stroke:#FF6700;stroke-width:6;stroke-linecap:round;stroke-miterlimit:10;}
	.st10{font-family:'GothamPro-Light';}
	.st11{font-size:70px;}
</style>
<image style="display:none;overflow:visible;enable-background:new    ;" width="4032" height="3024" xlink:href="C:\Users\jon.byles\Desktop\20190318_145040.jpg"  transform="matrix(-0.3738 -9.445203e-03 9.445203e-03 -0.3738 2046.7734 1472.2477)">
</image>
<image style="display:none;overflow:visible;enable-background:new    ;" width="4032" height="3024" xlink:href="C:\Users\jon.byles\Desktop\20190318_145040.jpg"  transform="matrix(-0.3738 -9.445203e-03 9.445203e-03 -0.3738 3425.0662 2459.2163)">
</image>
<path class="st0" d="M1479,690c0,0,12,456,14,538s-17.1,258-185.5,258S1107,1352,1107,1240s14-566,14-566L1479,690z"/>
<path class="st1" d="M1117.1,458.6c0,0,4.5,651,21,796.5s70.4,201,161.9,199.5s154.5-48,163.5-207s21-718.5,19.5-789
	c-0.5-25.4,3.6-62.1-7.5-98.6c-19.6-64.8-72-128.9-175.6-127.9c-94,0.9-146.7,57.3-169.2,116C1114.6,390.5,1116.9,434,1117.1,458.6z
	"/>
<circle class="st2" cx="1301.9" cy="506.6" r="172.9"/>
<circle class="st3" cx="1300.9" cy="796.3" r="56.2"/>
<circle class="st3" cx="1300.9" cy="954.1" r="56.2"/>
<path class="st4" d="M1317.6,710.3h-33.4c-2.8,0-5-2.3-5-5l0,0c0-2.8,2.3-5,5-5h33.4c2.8,0,5,2.3,5,5l0,0
	C1322.6,708,1320.4,710.3,1317.6,710.3z"/>
<path class="st5" d="M1281.9,785.8"/>
<polyline class="st6" points="1283.4,957.6 1283.4,972.1 1316.3,972.1 1316.3,957.6 "/>
<polyline class="st6" points="1278.8,952.9 1300.1,936.3 1321.4,954.1 "/>
<path class="st7" d="M1281.9,785.8h26.1c0,0,10.4-0.5,10.4,14.3s-9.8,13.4-9.8,13.4l-21.8,0.6"/>
<polyline class="st7" points="1291.9,777.3 1281.6,785.8 1291.9,794.9 "/>
<g>
	<path class="st8" d="M1220.3,1256.3c0,9.8,0,19.1,0,28.7c-1.6,0-3,0-4.6,0c0-11,0-22,0-33.3c0.8-0.1,1.7-0.2,2.5-0.2
		c5.8,0,11.7-0.1,17.5,0c9.3,0.1,16.4,7,16.8,16.1s-6.1,16.7-15.3,17.5c-4.4,0.4-9,0.1-13.8,0.1c0.7-3.1,2.5-4.5,5.3-4.7
		c2.2-0.1,4.5,0,6.7,0c7-0.2,12.3-5.6,12.2-12.3c-0.1-6.7-5.4-11.8-12.3-11.9C1230.6,1256.2,1225.7,1256.3,1220.3,1256.3z"/>
	<path class="st8" d="M1360.1,1256.3c0-1.7,0-3,0-4.8c3.8,0,7.5,0,11.3,0c2.7,0,5.3-0.1,8,0c5.5,0.2,9.8,4.4,9.8,9.7
		c0.1,5.4-4.3,9.8-10,10c-3.6,0.1-7.3,0-11.2,0.8c6.5,4.2,13,8.5,20.2,13.1c-4.6,0.3-8.3,0.8-11.9-2c-4.6-3.6-9.6-6.7-14.3-10
		c-2.3-1.6-2.6-3.1-0.4-4.7c1.4-1.1,3.5-1.7,5.3-1.8c3.9-0.3,7.8,0,11.6-0.1c3.2-0.1,5.5-2.1,5.5-4.9c0.1-3-2.2-5.1-5.6-5.2
		c-5-0.1-10,0-15,0C1362.5,1256.3,1361.4,1256.3,1360.1,1256.3z"/>
	<path class="st8" d="M1304.4,1251.8c5.6-0.9,5.6-0.9,8.1,3.6c4.1,7.6,8.2,15.3,12.5,23.3c0.7-1,1.2-1.7,1.6-2.4
		c3.8-6.9,7.6-13.8,11.4-20.7c2.4-4.4,2.4-4.4,7.9-3.9c-0.4,0.9-0.7,1.7-1.1,2.4c-5.1,9.6-10.3,19.1-15.3,28.7
		c-1,1.9-2.2,2.5-4.3,2.5c-2,0-3.3-0.3-4.4-2.3c-5-9.6-10.2-19.1-15.2-28.7C1305.1,1253.5,1304.8,1252.7,1304.4,1251.8z"/>
	<path class="st8" d="M1269,1271.1c0.7-3.3,2.8-4.6,5.7-4.7c4.2-0.1,8.4,0,12.6,0c3.6,0,6.1-2.1,6.1-5.1s-2.4-5-6-5.1
		c-5,0-10,0-15,0c-1,0-2-0.1-3.1-0.1c0-1.6,0-2.9,0-4.7c4,0,7.9,0,11.9,0c2.6,0,5.1-0.1,7.7,0c5.2,0.2,9.2,4.3,9.4,9.5
		c0.2,5-3.5,9.8-8.4,10C1282.9,1271.4,1276.1,1271.1,1269,1271.1z"/>
	<path class="st8" d="M1261.2,1285c0-11.2,0-22.1,0-33.3c1.5,0,2.9,0,4.4,0c0,11.1,0,22.1,0,33.3
		C1264.2,1285,1262.9,1285,1261.2,1285z"/>
	<path class="st8" d="M1356.7,1285.2c-1.6,0-2.8,0-4.3,0c0-11.1,0-22.2,0-33.4c1.3,0,2.7,0,4.3,0
		C1356.7,1262.8,1356.7,1273.8,1356.7,1285.2z"/>
</g>
<line class="st9" x1="1306" y1="823" x2="999" y2="823"/>
<line class="st9" x1="1285" y1="920" x2="1637" y2="920"/>
<line class="st9" x1="1321" y1="705" x2="1673" y2="705"/>
<line class="st9" x1="937" y1="443" x2="1289" y2="443"/>
<text transform="matrix(1 0 0 1 888 449)" class="st10 st11">a</text>
<text transform="matrix(1 0 0 1 1678 711)" class="st10 st11">b</text>
<text transform="matrix(1 0 0 1 953 831)" class="st10 st11">c</text>
<text transform="matrix(1 0 0 1 1642 923)" class="st10 st11">d</text>
</svg>
