<?xml version="1.0" encoding="utf-8"?>
<!-- Generator: Adobe Illustrator 22.1.0, SVG Export Plug-In . SVG Version: 6.00 Build 0)  -->
<svg version="1.1" id="Layer_1" xmlns="http://www.w3.org/2000/svg" xmlns:xlink="http://www.w3.org/1999/xlink" x="0px" y="0px"
	 viewBox="0 0 3333 1875" style="enable-background:new 0 0 3333 1875;" xml:space="preserve">
<style type="text/css">
	.st0{display:none;}
	.st1{display:inline;fill:#49494A;}
	.st2{display:inline;fill:#4B4B4B;}
	.st3{display:inline;fill:#444444;}
	.st4{display:inline;fill:#303030;}
	.st5{display:inline;fill:#252525;}
	.st6{display:inline;fill:#636363;}
	.st7{display:inline;}
	.st8{fill:#313131;}
	.st9{fill:#CDA082;}
	.st10{fill:#383838;}
	.st11{fill:#3A3A3A;}
	.st12{display:inline;fill:#505050;}
	.st13{fill:#0B0C0C;}
	.st14{fill:#4D4D4D;}
	.st15{fill:#212221;}
	.st16{display:inline;fill:#484848;}
	.st17{fill:#CEA284;}
	.st18{fill:#49494A;}
	.st19{fill:#080808;}
	.st20{fill:#232322;}
	.st21{fill:#D8A684;}
	.st22{fill:#111111;}
	.st23{fill:#464646;}
	.st24{fill:#06B0C9;}
	.st25{fill:#0E0E0E;}
	.st26{fill:#5A5A5A;}
	.st27{fill:#282828;}
	.st28{fill:#1C1C1C;}
	.st29{fill:none;stroke:#000000;stroke-width:7;stroke-linecap:round;stroke-miterlimit:10;}
	.st30{fill:#404040;stroke:#000000;stroke-miterlimit:10;}
	.st31{fill:none;stroke:#000000;stroke-width:6;stroke-linecap:round;stroke-miterlimit:10;}
	.st32{fill:#404040;}
	.st33{fill:#636363;}
	.st34{fill:none;stroke:#000000;stroke-width:4;stroke-linecap:round;stroke-linejoin:round;stroke-miterlimit:10;}
	.st35{fill:#484848;}
	.st36{font-family:'ArialMT';}
	.st37{font-size:32.4059px;}
	.st38{fill:none;stroke:#FF6700;stroke-width:6;stroke-linecap:round;stroke-miterlimit:10;}
	.st39{font-family:'GothamPro-Light';}
	.st40{font-size:70px;}
</style>
<image style="display:none;overflow:visible;" width="1985" height="1094" xlink:href="../Picture2.png"  transform="matrix(1.1503 0 0 1.1503 2547.7034 393.2175)">
</image>
<g class="st0">
	<path class="st1" d="M2785,124c-22.8,2.2-135,19-180.1,97c-12.5,21.7-13.4,53-13.4,89.4c0,183.9,47.2,16.5,47.2,16.5
		S2653,281,2783.5,258S2976,121,2976,121S2812.6,121.3,2785,124z"/>
	<path class="st2" d="M2861,160c0,0,12-183,54-274s96-146,135-166s120-22,163,10c0,0-66,17-123,96s-74,158-94,280S2861,160,2861,160
		z"/>
	<path class="st3" d="M3043.6,742.1c0,0-159-25.5-213-90s-84-114-82.5-244.5s25.5-178.5,64.5-219s96-97.5,298.5-106.5
		s217.5,9,466.5,0c21,0,129,36,129,36L3043.6,742.1z"/>
	<path class="st4" d="M3359-59c-4-4-63.4-157-124-193s-77.4-51.3-141.2-40.6c0,0,97.2-22.4,237.2,11.6S3539,5,3539,5L3359-59z"/>
	<path class="st5" d="M3391,105c0,0-4.7-61.3-46.4-205.2c0,0,31.4-26.8,94.4-7.8s108,206,108,206L3391,105z"/>
	<path class="st6" d="M2592,334.8c0,0-5-97.8,19-120.8c0,0-35,78,0,99s87,34,87,34L2592,334.8z"/>
	<g class="st7">
		<path class="st8" d="M3307.6,790.1c-4.5,1.5-228-39-265.5-46.5s-225-66-217.5-301.5s121.5-279,147-292.5s93-52.5,234-48
			s390-7.5,390-7.5s37.5,3,52.5,7.5s291,64.5,291,64.5L3307.6,790.1z"/>
		<path class="st9" d="M4103,310.5c-2.9-25.2-4.5-70-48-113.5c-38-38-83-38.4-183-49c-94-10-453-4-511,0s-106,7-161,70
			c-25.5,29.2-40.4,72.3-48,116.2c-8.9,50.8-8.4,102.5-9,134.6c-1,59.8-0.8,126.3,10,177.2c15.3,71.9,50.8,110.8,93.7,131.6
			c55.3,26.7,124.4,23.3,186.3,20.4c109-5,449-49,503-61s87-27,115-51s42-62,51-116c5.2-31.4,7.2-87.9,7.4-141
			C4109.5,377.9,4105.2,329.9,4103,310.5z M4091,565c-7,100-76,146-173,160s-385,54-505,52c-119-2-211-7-229-156
			c-4-33.3-7.7-88-7-149.8c0.4-36,1.5-71.4,4.7-112.1c7-86.4,49.3-180.1,171.3-186.1c0,0,265.1-24.3,581-5
			c73.3,4.5,110.8,31.4,133.1,66.3c27.7,43.4,29.2,130.3,29.9,160.7C4098.5,460,4098,465,4091,565z"/>
		<path class="st10" d="M4067.1,234.3c-22.3-34.9-59.8-61.8-133.1-66.3c-315.9-19.3-581,5-581,5c-122,6-164.3,99.7-171.3,186.1
			c-3.3,40.7-4.3,76.2-4.7,112.1c-0.7,61.8,3,116.5,7,149.8c18,149,110,154,229,156c120,2,408-38,505-52s166-60,173-160
			s7.5-105,6-170C4096.3,364.6,4094.8,277.7,4067.1,234.3z"/>
		<path class="st11" d="M2963,458.2c0.5-18,2.7-64.7,4-74s8.7-33.3,28-32.7c19.3,0.7,77.3,8,91.3,10s21.3,22,22,47.3
			c0.7,25.3,2.7,122,0,138.7s-8,37.3-33.3,35.3s-54-4.7-76-12s-31.3-26.7-32.7-42.7C2965,512.2,2962.5,478.8,2963,458.2z"/>
		<circle cx="3041.5" cy="465" r="6.5"/>
	</g>
	<path class="st7" d="M3574,107h11c0,0,25,9,0,10s-174-1-174-1s-45-2,0-11"/>
	<path class="st12" d="M3451-141c0,0-76-4-88-5s-31-2-24,28s84,211.3,80,229.1h166c0,0,3,2.9-9-34.1s-60-166-73-188
		S3488.2-139,3451-141z"/>
	<g class="st7">
		<path class="st13" d="M2835,316h29h13c0,0,10-5,10,15s0,20,0,20v219c0,0,7,18-26,11s-26-5-26-5V316z"/>
		<path class="st14" d="M2874,345v225c0,0,1.5,13.6-18.7,9.8C2835,576,2835,576,2835,576V313l29,3C2864,316,2874,311,2874,345z"/>
		<g>
			<path class="st15" d="M2785,310.5c-35.1-1.8-32,27.5-32,27.5s-3,192,0,215s26,22,26,22l56,1V313L2785,310.5z M2793.3,544
				c0,0-1.1,12-9.7,12c-8.6,0-9.4-4-10-20c-0.6-16,0.4-186,0.4-186s-3-17,7-15s11.7-6,12.3,30C2794,401,2793.3,544,2793.3,544z"/>
		</g>
	</g>
	<path class="st16" d="M2569,334.8V328c0,0-6-10,11-8s203.5,24,203.5,24s6.8,6.7,8.2-4.2l1.7,204.2c0,0,3.7,9-14.3,0s-184-60-184-60
		s-11,12.1-13-35S2569,334.8,2569,334.8z"/>
	<g class="st7">
		<g>
			<path class="st17" d="M3618.5,475.1c-1.5,0-2.7,0-4.2,0.1c-0.2-13.3-0.3-26.6-0.5-39.9c7.4-0.1,14.8-1.1,22-0.1
				c7.5,1,12.6,10.8,12.2,20.9s-6.4,18.2-14.3,18.9c-3.9,0.4-7.9,0.2-11.9,0.3c0.2-3.7,1.6-5.5,4.4-5.7c2.1-0.2,4.1-0.1,6.2-0.2
				c6.5-0.3,11.3-6.8,11.2-14.9c-0.2-8.2-5.1-14.2-11.7-14.2c-4.5,0-9,0.1-13.8,0.2C3618.2,452.2,3618.3,463.6,3618.5,475.1z"/>
			<path class="st17" d="M3754.6,457c6,4.9,12.1,9.9,18.7,15.3c-4.3,0.4-7.7,1-11-2.2c-4.3-4.2-8.9-7.8-13.4-11.7
				c-2.1-1.9-2.4-3.7-0.4-5.7c1.3-1.3,3.2-2.1,4.9-2.3c3.5-0.4,7-0.2,10.5-0.3c3.2-0.1,5.3-2.5,5.3-6c0-3.7-2.1-6.1-5.5-6.1
				c-4.6,0-9.2,0.2-13.9,0.2c-0.9,0-1.8-0.1-2.9-0.1c0-1.9,0-3.4-0.1-5.6c3.5-0.1,6.9-0.1,10.4-0.2c2.4,0,4.9-0.2,7.3-0.1
				c5.1,0.1,9.1,5.2,9.2,11.5c0.1,6.5-3.8,11.8-9,12.1c-3.3,0.2-6.7,0.1-10.1,0.2C3754.7,456.4,3754.7,456.7,3754.6,457z"/>
			<path class="st17" d="M3695.4,433.7c5.4-1,5.4-1,7.8,4.7c3.9,9,7.7,18,11.8,27.6c1.5-3.7,2.9-6.9,4.2-10.1
				c2.5-6.1,4.9-12.1,7.4-18.2c2.2-5.4,2.2-5.4,7.1-4.6c-0.3,0.9-0.5,1.8-0.8,2.7c-4.6,11.7-9.3,23.3-13.8,35c-0.9,2.4-2.1,2.9-4,3
				c-1.9,0.1-3.1-0.5-4-2.8C3706,458.6,3700.7,446.4,3695.4,433.7z"/>
			<path class="st17" d="M3663.1,457.6c0.8-4.1,2.7-5.7,5.4-5.8c3.9-0.1,7.7-0.1,11.6-0.2c3.3-0.1,5.5-2.8,5.4-6.4
				c-0.1-3.5-2.3-5.8-5.5-5.8c-5.5,0.1-11.1,0.2-16.8,0.3c0-2,0-3.7-0.1-5.5c6.6-0.1,13.1-0.6,19.5-0.2c4.2,0.3,7.4,6.2,7.3,11.9
				c-0.2,6.1-3.7,11.1-8.3,11.4C3675.6,457.6,3669.5,457.5,3663.1,457.6z"/>
			<path class="st17" d="M3660.2,474.4c-1.4,0-2.6,0-4,0.1c-0.2-13.4-0.3-26.6-0.5-40.1c1.3,0,2.6,0,4-0.1
				C3659.9,447.6,3660.1,460.8,3660.2,474.4z"/>
			<path class="st17" d="M3744.2,472.9c-1.5,0-2.7,0-4,0.1c-0.2-13.4-0.3-26.6-0.5-40.1c1.3,0,2.6,0,4-0.1
				C3743.9,446.1,3744.1,459.4,3744.2,472.9z"/>
		</g>
	</g>
</g>
<image style="display:none;overflow:visible;" width="4032" height="3024" xlink:href="C:\Users\jon.byles\Desktop\20190319_093346.jpg"  transform="matrix(0.5967 0 0 0.5967 187 0)">
</image>
<g>
	<path class="st18" d="M2264.5,1144c0,0,115.5-32.5,147.5-50s47-37.5,46.5-39s-48-25.5-48-25.5l-104-10L2257,1045l-12.5,30.5
		L2264.5,1144z"/>
	<path class="st19" d="M1024.1,1375.1c0,0,81,27,82.5-63s-16.5-94.5-25.5-114c-9-19.5-15.7-100.5-15.7-100.5l-182.3,21l99,208.5
		l12.5,44.4l6.3,5.7L1024.1,1375.1z"/>
	<path class="st20" d="M918,1305c23.1,9,63,27,67,42s-2.9,40.2,26,31.9c13.1-3.8,15-13.9,15-13.9s-14.8,16.2-27,6s12-41,17-47
		s18-16-9-46s-76-64-64-91s41-38,83-30s205,56,291,110.5s200,41.5,331,80.5s260,63.7,381,30.9s196-86.9,219-147.9s28-125,13-179
		s-264-109-264-109s-309,93-307,91s-832-36-832-36l-51,109l60,180C867,1287,894.9,1296,918,1305z"/>
	<path class="st8" d="M891,1289c0,0-27,4-17-7s21-20,34-27s15-22,14-35s-9-34-17-42s-52-55-61-86s0-62,62-56s99,19,166,58
		s148,87,191,97s178,25,391,30s319-44,371-99s86-116,96-248s-82-225-82-225l-479-543c0,0,47,39-17,188s-128,290-243,383
		s-195,127-295,165S629,975,574,988s-63,23-91,6c0,0,322,243,338,255C860,1277,867,1306,891,1289z"/>
	<path class="st9" d="M1501,95c48-11,51,3,72,24s15,51-15,135s-92,226-171,330c-77.3,101.8-167,171-310,229S788,921,665,959
		s-123,38-143,41s-33,5-43-8s-21-29-11-46s871-478,871-478S1453,106,1501,95z"/>
	<path class="st21" d="M1563.5,118.5c-1.5-20.5-26-39.5-80.5-20S1349,167,1349,167c-124,72-458,277-503,310s-78,54-134,108
		c-41.8,40.3-100,120-140,180s-86,137-95,160s-18,44-6,54s53,1,75-6s406-131,561-207s213-155,243-193s118.9-187.7,162-278
		C1557.7,199.3,1565,139,1563.5,118.5z M1527,190c-25.2,95.7-120,264-168,332s-122,154-260,218s-234.2,99.5-328,134
		c-72.9,26.8-148,52-244,82s-25.3-57.6,18-128c43-70,135-243,344-376c204.1-129.9,516-302,560-322S1554.3,86,1527,190z"/>
	<path class="st10" d="M1448,130c-44,20-355.9,192.1-560,322C679,585,587,758,544,828c-43.3,70.4-114,158-18,128s171.1-55.2,244-82
		c93.8-34.5,190-70,328-134s212-150,260-218s142.8-236.3,168-332C1553.3,86,1492,110,1448,130z"/>
	<path class="st22" d="M1563,571.3c0,33.7-17.3,54.7-43.2,54.7c-25.9,0-48.8-24.3-48.8-58c0-33.9,11.3-57.8,40.7-60.3
		C1537.4,505.4,1563,537.6,1563,571.3z"/>
	<path class="st23" d="M1550,571c0,26-11.9,45-32.7,45s-38-18-40.7-45c-2.6-25.8,10.9-50,31.7-50S1550,545,1550,571z"/>
	<path class="st24" d="M1555,507.8c0,6.8-4.2,7.5-4.7,7.5c-3.1,0-6.6-3.4-6.7-7.5c-0.1-6.8,3.6-7.5,4.7-7.5
		C1551.5,500.3,1555,503.7,1555,507.8z"/>
	<path class="st25" d="M1581.7,293.7c7.7-22.7,11.1-31.6,22-29.7c19.1,3.5,43.2,30.7,55.3,62.3c7.3,19.1,7,34.4-2.3,61
		c-10.7,30.3-34,93.7-39,103c-5,9.3-12.3,13.7-23.3,13.3c-11-0.3-22.7-4.3-37.7-20.7s-25.3-57.7-20-77
		C1542,386.7,1574,316.3,1581.7,293.7z"/>
	<path class="st26" d="M1607.3,476.7c-9.3,18.3-12.3,23-17.7,26.7c0,0-20-3-38.3-27c-18.3-24-16-59-15.3-64.7
		c0.7-5.7,46.3-114.7,49.3-123.7s9.7-14.3,14.7-13.3s33,9.3,43.3,51.7c6.3,25.9,3.7,36-0.7,49.3
		C1635.7,397,1616.5,458.8,1607.3,476.7z"/>
	<path class="st27" d="M1559.7,414.7c0,0,11-27,12.3-29.3c1.3-2.3,10.3-3.7,12-3c1.7,0.7,18.7,8.7,8.7,32.7s-18,55.3-28.3,43.3
		c-10.3-12-8.7-14-9.3-19.7c-0.7-5.7-1-10,1.3-15C1558.7,418.7,1559.7,414.7,1559.7,414.7z"/>
	
		<ellipse transform="matrix(0.9232 -0.3844 0.3844 0.9232 -1.2005 645.5251)" class="st28" cx="1614.4" cy="325.8" rx="11.8" ry="24.5"/>
	<path d="M1600.3,310.6c0,0,8.4-1,14.8,16.4s2.7,21,2.7,21s-10.7-5-15-20.3C1602.7,327.7,1599.6,321.6,1600.3,310.6z"/>
	<path d="M1568,452.3c0,0-2,7.3-4.6,4.8s-7.8-9.3-8.3-16.5s-1.5-10.7,1.2-16.8c2.7-6.2,14.2-35.5,14.2-35.5s3-2.9,6.3,0.6
		s8.1,7.9,9.3,11.6s1.3,9.1-1.6,15.8S1568,452.3,1568,452.3z"/>
	<g>
		<line class="st29" x1="1525" y1="580" x2="1512" y2="568.7"/>
		<path class="st29" d="M1511.1,583.2c-7.7-0.7-13.2-5.2-13.8-13.1c-0.2-3.3,1.4-16.4,15.7-17.4c7.7-0.5,12.9,4.7,15.2,11.6"/>
	</g>
	<path class="st30" d="M1111.3,823.3l-113,43.3c-6.2,2.3-22.3,9-11.7,21c10.7,12,12.3,13.7,20.3,21.7c9.4,9.4,31.6,7.6,36.7,5.7
		c9-3.3,100.5-37.9,118.7-44.8c18.3-6.9,12.4-22.5,6.3-29.2c-7-7.7-14.3-13-26-18.7C1131,816.7,1117.5,821,1111.3,823.3z"/>
	<line class="st31" x1="1149.7" y1="844" x2="1127.3" y2="853"/>
	<line class="st31" x1="1025" y1="890.7" x2="1005.3" y2="897.7"/>
	<line class="st31" x1="1003" y1="884.7" x2="1025.3" y2="904.7"/>
	<path class="st30" d="M814.7,930.3c10-2.5,16-4,27,2s19.7,11.7,27.7,26.7S859,973.3,856,974.7c-3,1.3-79,22-85.3,23.3
		c-6.3,1.3-20.7,0.5-31.3-7.3c-12.7-9.3-20-15-21.3-22s5.3-10,10.7-11.7C734,955.3,805.3,932.7,814.7,930.3z"/>
	
		<ellipse transform="matrix(0.2867 -0.958 0.958 0.2867 -260.4724 1516.5504)" class="st32" cx="888.2" cy="933.2" rx="4.8" ry="7.8"/>
	<path class="st30" d="M552.9,1013.4c5.1-2.2,16.1-4.4,22.5-1.2c6.7,3.4,16.8,10.6,21.4,15.2c4.8,4.7,1.2,10.9-4.3,13.1
		c-5.9,2.4-10.5,3.4-18.6,3.8c-4,0.2-11.4-2.6-16.3-6.1c-4.1-2.9-11.2-8.9-13.4-12.9C540.7,1019,548.9,1015.1,552.9,1013.4z"/>
	<path class="st33" d="M2268.8,1138.9c45-9.5,148.2-43.9,169.2-71.9s-83-26-121-19s-127,24-127,24l27-83c0,0,237-36,251,15
		s10,63,10,63l-19.5,10.3c-58.8,26-101.9,41.8-190.4,68.5L2268.8,1138.9z"/>
	<path class="st34" d="M568.2,1035.2c2.9-0.9,5-1.7,9.8-3.2c5.6-1.8,2-13.5-7.4-10.6c-6,1.9-12.8,3.7-12.8,3.7l7.7,2.3"/>
	<path class="st13" d="M2043,646.7c0,0-12.7-0.7-18,2c-5.3,2.7-13.3,4.7-15.3,23.3S1983,910,1981,936.7c-2,26.7,7.3,44,19.3,55.3
		s32.7,30.7,43.3,37.3c10.7,6.7,23.3,12.7,43.3,18c20,5.3,78.7,26,91.3,28.7c12.7,2.7,31.3-5.3,38-16.7
		C2223,1048,2043,646.7,2043,646.7z"/>
	<path class="st14" d="M2005,931.3c-2,26.7,8.7,46.7,23.3,60c14.7,13.3,30.7,34,46,39.3c15.3,5.3,48.7-138,48.7-138l-15.3-193.3
		c0,0-12.7-3.3-26.7-18c-14-14.7-23.3-31.3-33.3-34c-10-2.7-15.3-2-18,20C2027,689.3,2007,904.7,2005,931.3z"/>
	<path class="st15" d="M2074.3,1030.7c0,0,5.3,2.7,19.3,7.3s79.3,29.3,92,29.3c12.7,0,31.3-4,34-10.7c2.7-6.7,7.3-39.3,6-52.7
		c-1.3-13.3-46.7-283.3-46.7-283.3s-71.7-20.3-81-25.7L2074.3,1030.7z"/>
	<path class="st35" d="M2147,1008.7c2,11.3,14,19.3,23.3,21.3c9.3,2,18-1.3,19.3-10.7c1.3-9.3,62-18,69.3-16.7
		c7.3,1.3,75.3-9.3,159.3,22c84,31.3,56.3,45.8,28.9,57.1c0,0,37.8-9.8,40.8-26.8s-9-269-10-287s-23-34-63-50s-104-40-169-29
		s-86,40-88,64S2145,997.3,2147,1008.7z"/>
	<g>
		<g>
			<path class="st17" d="M826.1,600.2c-1.1,0.6-2,1.1-3.1,1.7c3.7-6.7,7.4-13.5,11.1-20.2c5.5-3,11.3-6.4,16.4-8.7
				c5.3-2.4,6.3,0.6,3.1,5.9s-10,11.8-16,15.3c-3,1.7-5.9,3.2-8.9,4.9c1.2-2,2.8-3.4,4.9-4.7c1.6-0.9,3.1-1.7,4.7-2.5
				c4.9-2.7,10.3-7.9,12.6-12.1c2.2-4.1,0.3-5.3-4.6-2.7c-3.3,1.8-6.7,3.6-10.3,5.6C832.5,588.6,829.3,594.4,826.1,600.2z"/>
			<path class="st17" d="M932.4,537.2c3,0.1,6.1,0.3,9.5,0.5c-3.3,1.9-6,3.6-7.5,3.2c-2-0.5-4.4-0.5-6.6-0.7c-1-0.1-0.7-0.9,1.3-2.8
				c1.3-1.2,3-2.3,4.3-3.1c2.7-1.6,5.3-2.9,7.9-4.3c2.4-1.3,4.7-3.4,5.7-5.2c1.1-1.9,0.2-2.3-2.3-1c-3.4,1.8-6.9,3.7-10.4,5.6
				c-0.7,0.4-1.3,0.7-2.1,1.1c0.5-1,1-1.7,1.5-2.8c2.6-1.4,5.2-2.8,7.8-4.2c1.8-0.9,3.7-2,5.4-2.9c3.8-2,5.3-0.9,3.5,2.3
				c-1.8,3.3-6.2,7.5-10.2,9.8c-2.5,1.4-5,2.7-7.6,4.1C932.6,536.9,932.5,537,932.4,537.2z"/>
			<path class="st17" d="M895.1,548.7c4.3-2.6,4.3-2.6,4.4-0.7c0.3,3.1,0.6,6.2,0.8,9.5c2.2-2.5,4.1-4.7,6-6.8
				c3.6-4.1,7.1-8.1,10.7-12.2c3.2-3.6,3.2-3.6,6.6-5.2c-0.5,0.6-0.9,1.1-1.4,1.7c-6.8,7.8-13.6,15.6-20.3,23.4
				c-1.4,1.6-2.4,2.3-3.8,3.1c-1.4,0.8-2.2,1-2.2,0.1C895.8,557.2,895.4,553.1,895.1,548.7z"/>
			<path class="st17" d="M864.3,573.6c1.8-2.4,3.6-4,5.7-5.1c2.9-1.6,5.7-3.1,8.7-4.7c2.5-1.4,4.9-3.6,5.8-5.4
				c0.9-1.8,0-2.1-2.4-0.8c-4.1,2.2-8.3,4.5-12.6,6.8c0.6-1,1.1-1.9,1.5-2.8c4.9-2.7,9.9-5.5,14.5-7.8c3-1.5,3.7,0.3,2,3.2
				c-1.9,3.2-5.9,7.1-9.4,9.1C873.5,568.7,869,571.1,864.3,573.6z"/>
			<path class="st17" d="M857.3,583.4c-1,0.6-1.9,1-3,1.6c3.7-6.8,7.4-13.5,11.1-20.3c1-0.5,1.9-1,3-1.6
				C864.8,569.8,861.1,576.5,857.3,583.4z"/>
			<path class="st17" d="M920.1,549.5c-1.1,0.6-2,1.1-3,1.6c3.7-6.8,7.4-13.5,11.1-20.3c1-0.5,1.9-1,3-1.6
				C927.6,535.9,923.9,542.6,920.1,549.5z"/>
		</g>
	</g>
	<g>
		<g>
			<path class="st17" d="M1864.4,668.4c-1-1-1.7-1.9-2.7-2.9c2.2-9.1,4.4-18.2,6.5-27.3c4.7,5.1,9.6,9.6,14,15.3
				c4.6,5.9,6.2,16.1,4.2,22.6c-2,6.5-7.2,7.8-12.4,2.8c-2.6-2.5-5.1-5.4-7.6-8.1c0.8-2.4,2-2.6,3.8-0.8c1.4,1.3,2.6,2.8,4,4.2
				c4.2,4.3,8.4,3.3,9.7-2.2c1.3-5.7-0.8-13.2-5-17.8c-2.9-3.1-5.8-6.2-8.8-9.5C1868.2,652.7,1866.3,660.5,1864.4,668.4z"/>
			<path class="st17" d="M1954.3,751.3c3,7.5,6,15.1,9.3,23.4c-2.8-2.7-5.1-4.7-6.6-9.2c-2-5.8-4.3-11.5-6.5-17.3
				c-1-2.8-0.9-4.2,0.7-4.1c1.1,0,2.4,0.8,3.5,1.9c2.3,2.2,4.5,4.8,6.7,7.1c2.1,2.2,3.8,2,4.4-0.3c0.6-2.5-0.3-5.6-2.5-8
				c-2.9-3.2-5.9-6.3-8.9-9.6c-0.6-0.6-1.1-1.3-1.8-2.1c0.3-1.3,0.6-2.3,0.9-3.9c2.2,2.4,4.4,4.8,6.7,7.1c1.5,1.7,3.2,3.3,4.7,5
				c3.2,3.6,4.9,9.9,3.9,14.2c-1.1,4.5-4.5,5.3-7.8,1.9c-2.1-2.2-4.3-4.6-6.5-6.9C1954.5,751,1954.5,751.2,1954.3,751.3z"/>
			<path class="st17" d="M1920.6,694.2c3.6,3.1,3.6,3.1,4.2,8.6c0.9,8.8,1.8,17.5,2.8,26.9c1.6-1.4,3-2.6,4.4-3.9
				c2.6-2.4,5.2-4.7,7.8-7.1c2.3-2.1,2.3-2.1,5.3,1.9c-0.3,0.4-0.6,0.9-1,1.3c-4.9,4.7-9.9,9.2-14.8,14c-1,1-1.8,0.5-3.1-0.8
				s-1.9-2.5-2.1-4.7C1923.1,718.4,1921.8,706.5,1920.6,694.2z"/>
			<path class="st17" d="M1895.9,687.7c1.2-2.2,2.7-2,4.4-0.1c2.5,2.7,4.9,5.3,7.4,8c2.1,2.2,4,2,4.5-0.5c0.5-2.4-0.5-5.5-2.5-7.8
				c-3.5-3.8-7.1-7.6-10.8-11.5c0.3-1.4,0.6-2.5,0.9-3.8c4.2,4.5,8.5,8.8,12.5,13.5c2.6,3.1,3.7,9.4,2.6,13.1
				c-1.2,4-4.3,4.9-7.3,1.9C1903.9,696.5,1900,692.1,1895.9,687.7z"/>
			<path class="st17" d="M1891.2,697.1c-0.9-1-1.7-1.8-2.6-2.7c2.2-9.2,4.4-18.2,6.6-27.4c0.8,0.9,1.7,1.8,2.6,2.7
				C1895.6,678.7,1893.4,687.8,1891.2,697.1z"/>
			<path class="st17" d="M1945,754.8c-1-1-1.7-1.9-2.6-2.7c2.2-9.2,4.4-18.2,6.6-27.4c0.8,0.9,1.7,1.8,2.6,2.7
				C1949.4,736.5,1947.2,745.6,1945,754.8z"/>
		</g>
	</g>
	<text transform="matrix(0.6898 0.7207 -0.2288 0.9735 1783.4685 625.8181)" class="st17 st36 st37">Personal Cinema</text>
</g>
<line class="st38" x1="1621" y1="328" x2="2127" y2="328"/>
<line class="st38" x1="1571" y1="438" x2="2077" y2="438"/>
<line class="st38" x1="1541" y1="580" x2="2047" y2="580"/>
<line class="st38" x1="373" y1="948" x2="821" y2="948"/>
<line class="st38" x1="350" y1="1041" x2="564" y2="1041"/>
<line class="st38" x1="425" y1="864" x2="1073" y2="864"/>
<text transform="matrix(1 0 0 1 279 1056)" class="st39 st40">a</text>
<text transform="matrix(1 0 0 1 309 964)" class="st39 st40">b</text>
<text transform="matrix(1 0 0 1 2073 604)" class="st39 st40">d</text>
<text transform="matrix(1 0 0 1 2099 456)" class="st39 st40">e</text>
<text transform="matrix(1 0 0 1 2149 344)" class="st39 st40">f</text>
<text transform="matrix(1 0 0 1 373 878)" class="st39 st40">c</text>
</svg>
