<?xml version="1.0" encoding="utf-8"?>
<!-- Generator: Adobe Illustrator 22.1.0, SVG Export Plug-In . SVG Version: 6.00 Build 0)  -->
<svg version="1.1" id="Layer_1" xmlns="http://www.w3.org/2000/svg" xmlns:xlink="http://www.w3.org/1999/xlink" x="0px" y="0px"
	 viewBox="0 0 3333 1875" style="enable-background:new 0 0 3333 1875;" xml:space="preserve">
<style type="text/css">
	.st0{fill:#1C1B1F;}
	.st1{fill:none;stroke:#000000;stroke-width:3;stroke-miterlimit:10;}
	.st2{fill:#2B2B2B;}
	.st3{fill:#0F0D0F;}
	.st4{fill:url(#SVGID_1_);}
	.st5{fill:none;stroke:#FF6700;stroke-width:6;stroke-linecap:round;stroke-miterlimit:10;}
	.st6{font-family:'GothamPro-Light';}
	.st7{font-size:70px;}
</style>
<path class="st0" d="M958,1533c0,0,35.6,43.9,82,58c40,12.1,91.1-4.8,99.1-9.6c31.5-18.7,52.2-45.9,59.9-61.4c12-24,24-72,24-72
	l-24-586c0,0-1.4-10.2-8-18l-4-286l2-38c0,0-20-96-66-130s-88-40-91-37s-3,15-3,15l-5.5-0.5V360c0,0-0.5-11.9-12-7.7
	s-15.5,5.2-15.5,5.2s-4.5,0.5-4.5,13c0,0,4.5,126.5-1.5,212.5S958,1533,958,1533z"/>
<path class="st1" d="M1102,1593c0,0-11.5-130-19-402c-1.9-69.6,27.1-143.9,86-193c24-20,34.3-30,34.3-30"/>
<path class="st1" d="M1013,988c1,92,42,159,42,159l5.9,102l14.1,347"/>
<path class="st2" d="M1027,376c0,0-0.8,73,5,146l-19,472.4c0,0-7-85.4-6-135.4s9.9-276,12.5-341c0,0-9.5-176,4-158s5.5,8,5.5,8
	L1027,376z"/>
<path class="st3" d="M1266,792c0,3.7-10,26-35,40s-40,12-40,12s-6-36-16-52s-12-73-12-107s-2-81,9-108s11-27,20-24s0,11,2,40
	s0.1,81.2,40,139C1254,761,1266,788.3,1266,792z"/>
<linearGradient id="SVGID_1_" gradientUnits="userSpaceOnUse" x1="1211.3131" y1="1089.1896" x2="1282.2708" y2="994.3624" gradientTransform="matrix(1 0 0 -1 0 1875)">
	<stop  offset="0.2154" style="stop-color:#000000"/>
	<stop  offset="0.2325" style="stop-color:#0A0A0A"/>
	<stop  offset="0.3212" style="stop-color:#363636"/>
	<stop  offset="0.4066" style="stop-color:#595959"/>
	<stop  offset="0.4866" style="stop-color:#727272"/>
	<stop  offset="0.5593" style="stop-color:#828282"/>
	<stop  offset="0.6179" style="stop-color:#878787"/>
	<stop  offset="1" style="stop-color:#909090"/>
</linearGradient>
<path class="st4" d="M1244.6,797.9c-3.9,4.2-17.8,16.6-35.6,23.1c-9.6,3.5-18.2,6-18.2,6s7.1,8.3,4.8,18c0,0,26.4-1,50.9-23.3
	C1267,803.1,1267,792,1267,792s-4.8-13.9-15.7-32.1c-10.9-18.2,0.9,6.9,0.9,6.9s1.8,5.1,3.7,8.7c1.8,3.7,2.1,5.9-2.5,11.9
	C1248.8,793.3,1248.8,793.3,1244.6,797.9z"/>
<line class="st5" x1="1219.1" y1="721.1" x2="1340.6" y2="721.1"/>
<text transform="matrix(1 0 0 1 1350.6057 731.1006)" class="st6 st7">a</text>
</svg>
