<?xml version="1.0" encoding="utf-8"?>
<!-- Generator: Adobe Illustrator 22.1.0, SVG Export Plug-In . SVG Version: 6.00 Build 0)  -->
<svg version="1.1" id="Layer_1" xmlns="http://www.w3.org/2000/svg" xmlns:xlink="http://www.w3.org/1999/xlink" x="0px" y="0px"
	 viewBox="0 0 3333 1875" style="enable-background:new 0 0 3333 1875;" xml:space="preserve">
<style type="text/css">
	.st0{display:none;fill:#FFFFFF;stroke:#000000;stroke-miterlimit:10;}
	.st1{fill:#49494A;}
	.st2{fill:#4B4B4B;}
	.st3{fill:#444444;}
	.st4{fill:#303030;}
	.st5{fill:#252525;}
	.st6{fill:#636363;}
	.st7{fill:#313131;}
	.st8{fill:#CDA082;}
	.st9{fill:#383838;}
	.st10{fill:#3A3A3A;}
	.st11{fill:#505050;}
	.st12{fill:#0B0C0C;}
	.st13{fill:#4D4D4D;}
	.st14{fill:#212221;}
	.st15{fill:#484848;}
	.st16{fill:#CEA284;}
</style>
<image style="display:none;overflow:visible;" width="707" height="503" xlink:href="E41CF416.png"  transform="matrix(2.4877 0 0 2.4877 416.904 254.7029)">
</image>
<image style="display:none;overflow:visible;" width="707" height="503" xlink:href="E41CF41A.png"  transform="matrix(2.4877 0 0 2.4877 2060.647 583.968)">
</image>
<path class="st0" d="M1085,1248c-6.4-52.6-7-158.9-1.3-261.9C1088.4,900.7,1132,806,1254,800c0,0,265.1-24.3,581-5
	c73.3,4.5,110.8,31.4,133.1,66.3c27.7,43.4,29.2,130.3,29.9,160.7c1.5,65,1,70-6,170s-76,146-173,160s-385,54-505,52
	C1195,1402,1103,1397,1085,1248z"/>
<path class="st1" d="M686,751c-22.8,2.2-135,19-180.1,97c-12.5,21.7-13.4,53-13.4,89.4c0,183.9,47.2,16.5,47.2,16.5
	S554,908,684.5,885S877,748,877,748S713.6,748.3,686,751z"/>
<path class="st2" d="M762,787c0,0,12-183,54-274s96-146,135-166s120-22,163,10c0,0-66,17-123,96s-74,158-94,280S762,787,762,787z"/>
<path class="st3" d="M944.6,1369.1c0,0-159-25.5-213-90c-54-64.5-84-114-82.5-244.5s25.5-178.5,64.5-219
	c39-40.5,96-97.5,298.5-106.5c202.5-9,217.5,9,466.5,0c21,0,129,36,129,36L944.6,1369.1z"/>
<path class="st4" d="M1260,568c-4-4-63.4-157-124-193s-77.4-51.3-141.2-40.6c0,0,97.2-22.4,237.2,11.6s208,286,208,286L1260,568z"/>
<path class="st5" d="M1292,732c0,0-4.7-61.3-46.4-205.2c0,0,31.4-26.8,94.4-7.8s108,206,108,206L1292,732z"/>
<path class="st6" d="M493,961.8c0,0-5-97.8,19-120.8c0,0-35,78,0,99s87,34,87,34L493,961.8z"/>
<g>
	<path class="st7" d="M1208.6,1417.1c-4.5,1.5-228-39-265.5-46.5s-225-66-217.5-301.5s121.5-279,147-292.5s93-52.5,234-48
		c141,4.5,390-7.5,390-7.5s37.5,3,52.5,7.5c15,4.5,291,64.5,291,64.5L1208.6,1417.1z"/>
	<path class="st8" d="M2004,937.5c-2.9-25.2-4.5-70-48-113.5c-38-38-83-38.4-183-49c-94-10-453-4-511,0s-106,7-161,70
		c-25.5,29.2-40.4,72.3-48,116.2c-8.9,50.8-8.4,102.5-9,134.6c-1,59.8-0.8,126.3,10,177.2c15.3,71.9,50.8,110.8,93.7,131.6
		c55.3,26.7,124.4,23.3,186.3,20.4c109-5,449-49,503-61s87-27,115-51s42-62,51-116c5.2-31.4,7.2-87.9,7.4-141
		C2010.5,1004.9,2006.2,956.9,2004,937.5z M1992,1192c-7,100-76,146-173,160s-385,54-505,52c-119-2-211-7-229-156
		c-4-33.3-7.7-88-7-149.8c0.4-36,1.5-71.4,4.7-112.1c7-86.4,49.3-180.1,171.3-186.1c0,0,265.1-24.3,581-5
		c73.3,4.5,110.8,31.4,133.1,66.3c27.7,43.4,29.2,130.3,29.9,160.7C1999.5,1087,1999,1092,1992,1192z"/>
	<path class="st9" d="M1968.1,861.3c-22.3-34.9-59.8-61.8-133.1-66.3c-315.9-19.3-581,5-581,5c-122,6-164.3,99.7-171.3,186.1
		c-3.3,40.7-4.3,76.2-4.7,112.1c-0.7,61.8,3,116.5,7,149.8c18,149,110,154,229,156c120,2,408-38,505-52s166-60,173-160
		s7.5-105,6-170C1997.3,991.6,1995.8,904.7,1968.1,861.3z"/>
	<path class="st10" d="M864,1085.2c0.5-18,2.7-64.7,4-74s8.7-33.3,28-32.7c19.3,0.7,77.3,8,91.3,10s21.3,22,22,47.3
		c0.7,25.3,2.7,122,0,138.7c-2.7,16.7-8,37.3-33.3,35.3s-54-4.7-76-12c-22-7.3-31.3-26.7-32.7-42.7
		C866,1139.2,863.5,1105.8,864,1085.2z"/>
	<circle cx="942.5" cy="1092" r="6.5"/>
</g>
<path d="M1475,734h11c0,0,25,9,0,10s-174-1-174-1s-45-2,0-11"/>
<path class="st11" d="M1352,486c0,0-76-4-88-5s-31-2-24,28s84,211.3,80,229.1h166c0,0,3,2.9-9-34.1s-60-166-73-188
	S1389.2,488,1352,486z"/>
<g>
	<path class="st12" d="M736,943h29h13c0,0,10-5,10,15s0,20,0,20v219c0,0,7,18-26,11s-26-5-26-5V943z"/>
	<path class="st13" d="M775,972v225c0,0,1.5,13.6-18.7,9.8C736,1203,736,1203,736,1203V940l29,3C765,943,775,938,775,972z"/>
	<g>
		<path class="st14" d="M686,937.5c-35.1-1.8-32,27.5-32,27.5s-3,192,0,215s26,22,26,22l56,1V940L686,937.5z M694.3,1171
			c0,0-1.1,12-9.7,12s-9.4-4-10-20s0.4-186,0.4-186s-3-17,7-15s11.7-6,12.3,30C695,1028,694.3,1171,694.3,1171z"/>
	</g>
</g>
<path class="st15" d="M470,961.8V955c0,0-6-10,11-8s203.5,24,203.5,24s6.8,6.7,8.2-4.2l1.7,204.2c0,0,3.7,9-14.3,0s-184-60-184-60
	s-11,12.1-13-35S470,961.8,470,961.8z"/>
<g>
	<g>
		<path class="st16" d="M1519.5,1102.1c-1.5,0-2.7,0-4.2,0.1c-0.2-13.3-0.3-26.6-0.5-39.9c7.4-0.1,14.8-1.1,22-0.1
			c7.5,1,12.6,10.8,12.2,20.9c-0.4,10.1-6.4,18.2-14.3,18.9c-3.9,0.4-7.9,0.2-11.9,0.3c0.2-3.7,1.6-5.5,4.4-5.7
			c2.1-0.2,4.1-0.1,6.2-0.2c6.5-0.3,11.3-6.8,11.2-14.9c-0.2-8.2-5.1-14.2-11.7-14.2c-4.5,0-9,0.1-13.8,0.2
			C1519.2,1079.2,1519.3,1090.6,1519.5,1102.1z"/>
		<path class="st16" d="M1655.6,1084c6,4.9,12.1,9.9,18.7,15.3c-4.3,0.4-7.7,1-11-2.2c-4.3-4.2-8.9-7.8-13.4-11.7
			c-2.1-1.9-2.4-3.7-0.4-5.7c1.3-1.3,3.2-2.1,4.9-2.3c3.5-0.4,7-0.2,10.5-0.3c3.2-0.1,5.3-2.5,5.3-6c0-3.7-2.1-6.1-5.5-6.1
			c-4.6,0-9.2,0.2-13.9,0.2c-0.9,0-1.8-0.1-2.9-0.1c0-1.9,0-3.4-0.1-5.6c3.5-0.1,6.9-0.1,10.4-0.2c2.4,0,4.9-0.2,7.3-0.1
			c5.1,0.1,9.1,5.2,9.2,11.5c0.1,6.5-3.8,11.8-9,12.1c-3.3,0.2-6.7,0.1-10.1,0.2C1655.7,1083.4,1655.7,1083.7,1655.6,1084z"/>
		<path class="st16" d="M1596.4,1060.7c5.4-1,5.4-1,7.8,4.7c3.9,9,7.7,18,11.8,27.6c1.5-3.7,2.9-6.9,4.2-10.1
			c2.5-6.1,4.9-12.1,7.4-18.2c2.2-5.4,2.2-5.4,7.1-4.6c-0.3,0.9-0.5,1.8-0.8,2.7c-4.6,11.7-9.3,23.3-13.8,35c-0.9,2.4-2.1,2.9-4,3
			c-1.9,0.1-3.1-0.5-4-2.8C1607,1085.6,1601.7,1073.4,1596.4,1060.7z"/>
		<path class="st16" d="M1564.1,1084.6c0.8-4.1,2.7-5.7,5.4-5.8c3.9-0.1,7.7-0.1,11.6-0.2c3.3-0.1,5.5-2.8,5.4-6.4
			c-0.1-3.5-2.3-5.8-5.5-5.8c-5.5,0.1-11.1,0.2-16.8,0.3c0-2,0-3.7-0.1-5.5c6.6-0.1,13.1-0.6,19.5-0.2c4.2,0.3,7.4,6.2,7.3,11.9
			c-0.2,6.1-3.7,11.1-8.3,11.4C1576.6,1084.6,1570.5,1084.5,1564.1,1084.6z"/>
		<path class="st16" d="M1561.2,1101.4c-1.4,0-2.6,0-4,0.1c-0.2-13.4-0.3-26.6-0.5-40.1c1.3,0,2.6,0,4-0.1
			C1560.9,1074.6,1561.1,1087.8,1561.2,1101.4z"/>
		<path class="st16" d="M1645.2,1099.9c-1.5,0-2.7,0-4,0.1c-0.2-13.4-0.3-26.6-0.5-40.1c1.3,0,2.6,0,4-0.1
			C1644.9,1073.1,1645.1,1086.4,1645.2,1099.9z"/>
	</g>
</g>
</svg>
